Coordinates
version=1
nRows=14
nColumns=24
inDegrees=yes

Units are S.I. units (second, meters, Newtons, ...)
Angles are in degrees.

endheader
time	pelvis_tilt	pelvis_list	pelvis_rotation	pelvis_tx	pelvis_ty	pelvis_tz	hip_flexion_r	hip_adduction_r	hip_rotation_r	knee_angle_r	ankle_angle_r	subtalar_angle_r	mtp_angle_r	hip_flexion_l	hip_adduction_l	hip_rotation_l	knee_angle_l	ankle_angle_l	subtalar_angle_l	mtp_angle_l	lumbar_extension	lumbar_bending	lumbar_rotation
      1.35466667	     -3.09002145	     -8.28161292	    -10.42323094	      0.84792388	      0.96705744	      0.36313369	    -16.50599927	      8.73333554	      0.73664398	     -7.78974504	     12.84886270	     -1.58967124	     -0.09709868	     33.90981004	    -13.99881515	    -11.37067042	      0.03243569	      6.25175178	     -8.45213031	    -12.36410230	     -7.45539850	      9.46705154	      8.44480199
      1.35883333	     -3.05531678	     -8.20443604	    -10.77581890	      0.85397281	      0.96626133	      0.36362469	    -16.82835061	      8.45792335	      0.96968205	     -7.95239278	     12.75306435	     -1.49025623	      0.14098199	     33.79468936	    -14.13416184	    -11.35526042	     -0.48487762	      6.51012751	     -8.41460010	    -12.36276223	     -7.49026055	      9.25138923	      8.78963220
      1.36300000	     -3.04526710	     -8.20131105	    -11.04561486	      0.85998737	      0.96535953	      0.36383730	    -17.12221249	      8.27014600	      1.12767027	     -8.13250584	     12.69155833	     -1.31324528	      0.25893271	     33.74382645	    -14.27675853	    -11.16699372	     -1.04473175	      6.71213680	     -8.48783993	    -12.35925246	     -7.51246580	      9.16528259	      8.94062816
      1.36716667	     -3.02619702	     -8.16491276	    -11.34097192	      0.86609833	      0.96453191	      0.36408157	    -17.41376176	      8.03182572	      1.28044221	     -8.32452670	     12.58965679	     -1.11364074	      0.41902460	     33.64769880	    -14.39663269	    -11.06332959	     -1.60508030	      6.92931797	     -8.51509864	    -12.35405321	     -7.53257528	      9.02921952	      9.21272847
      1.37133333	     -3.04962942	     -8.12070943	    -11.59996368	      0.87232558	      0.96364535	      0.36422718	    -17.66073875	      7.79922338	      1.39051896	     -8.51125773	     12.41335945	     -0.97676746	      0.46378553	     33.57833757	    -14.47883406	    -10.90402477	     -2.13325499	      7.10118577	     -8.60782650	    -12.34959865	     -7.47240593	      8.90490700	      9.26686782
      1.37550000	     -2.99438212	     -8.07407973	    -11.91608997	      0.87851049	      0.96296144	      0.36443068	    -17.96065910	      7.51908251	      1.53209071	     -8.74941694	     12.30195115	     -0.69603527	      0.68928358	     33.39289625	    -14.58234796	    -10.91377582	     -2.66696074	      7.24320920	     -8.54518661	    -12.33228530	     -7.54367714	      8.74986980	      9.69463581
      1.37966667	     -3.02325597	     -8.03299623	    -12.16557125	      0.88483703	      0.96212768	      0.36449274	    -18.18416894	      7.28105908	      1.63026350	     -8.96318571	     12.06018991	     -0.56106608	      0.73921663	     33.29397645	    -14.64548456	    -10.78254400	     -3.16982193	      7.34872190	     -8.62785821	    -12.32585893	     -7.47331543	      8.63763723	      9.72403677
      1.38383333	     -2.88648244	     -7.90480433	    -12.54579109	      0.89122738	      0.96174229	      0.36485715	    -18.55124982	      6.87406514	      1.83405413	     -9.19841774	     11.84873292	     -0.36076993	      1.32155922	     32.90932747	    -14.68589293	    -11.01031789	     -3.58731012	      7.41201242	     -8.53674669	    -12.25938467	     -7.59105501	      8.34484214	     10.17594855
      1.38800000	     -2.90072596	     -7.88492197	    -12.77305114	      0.89756303	      0.96098996	      0.36474148	    -18.73894781	      6.63612016	      1.84194452	     -9.50133092	     11.63367629	     -0.02596074	      1.64818463	     32.78755761	    -14.73756796	    -10.94386082	     -4.09028187	      7.41052214	     -8.55212042	    -12.21123214	     -7.56078732	      8.27579133	     10.35616301
      1.39216667	     -2.86359145	     -7.75858365	    -13.06779186	      0.90407001	      0.96046903	      0.36482527	    -18.96333506	      6.26099845	      1.91096220	     -9.79353843	     11.33917546	      0.20289527	      2.09219071	     32.50508270	    -14.71060647	    -11.03822290	     -4.45267347	      7.29290385	     -8.64834012	    -12.13568025	     -7.53876686	      8.04394407	     10.55742568
      1.39633333	     -2.82436856	     -7.73247623	    -13.33082255	      0.91048746	      0.95994722	      0.36483980	    -19.19110014	      5.99657467	      2.00587078	    -10.09672246	     10.94063250	      0.31151388	      8.79925886	     32.27739704	    -14.77250034	    -11.15789743	     -4.90868857	      7.23410868	     -8.53692697	    -10.71769575	     -7.56697548	      7.93435960	     10.67488586
      1.40050000	     -2.87588390	     -7.68258954	    -13.51272132	      0.91703775	      0.95928970	      0.36462818	    -19.30711970	      5.74573811	      1.98668062	    -10.42789717	     10.52173114	      0.49810247	      8.81205871	     32.14990586	    -14.75475762	    -11.13851718	     -5.31153157	      7.06010357	     -8.63743883	    -10.71242482	     -7.44274070	      7.84886011	     10.73563823
      1.40466667	     -2.86050889	     -7.50964908	    -13.75525178	      0.92364423	      0.95885563	      0.36449770	    -19.41721281	      5.32364431	      1.93423081	    -10.85332303	     10.22762266	      0.84935403	      8.89294644	     31.87323825	    -14.62791711	    -11.25986818	     -5.58503184	      6.69787349	     -8.87122995	    -10.68136877	     -7.38119990	      7.58078184	     10.97180833
      1.40883333	     -2.79394153	     -7.37307779	    -13.97186572	      0.93025781	      0.95856281	      0.36434623	    -19.58078786	      4.93438694	      1.89551052	    -11.27090470	      9.80812950	      1.12822795	      9.03558910	     31.55045428	    -14.51909561	    -11.42629458	     -5.85934483	      6.32313674	     -9.00354366	    -10.61746888	     -7.38087918	      7.34880433	     11.11795424
